<svg xmlns="http://www.w3.org/2000/svg" width="420" height="420" viewBox="0 0 420 420">
<!-- Wayfeather wallpaper wp-03 · Slipstream — dashed flight trails only, large and sparse, moss tone -->
<path d="M-92 33C-70 5 -46 1 -34 15c8 10 -7 18 -12 8C-52 11 -33 3 -21 7c6 2 9 -2 11 -8" transform="translate(156 96) rotate(-14) scale(1.05)" fill="none" stroke="#4B6630" stroke-opacity="0.23" stroke-width="2.3" stroke-linecap="round" stroke-linejoin="round" stroke-dasharray="3 7"/>
<path d="M-92 33C-70 5 -46 1 -34 15c8 10 -7 18 -12 8C-52 11 -33 3 -21 7c6 2 9 -2 11 -8" transform="translate(156 516) rotate(-14) scale(1.05)" fill="none" stroke="#4B6630" stroke-opacity="0.23" stroke-width="2.3" stroke-linecap="round" stroke-linejoin="round" stroke-dasharray="3 7"/>
<path d="M-74 30C-50 8 -22 0 2 8c9 3 12 -4 6 -8c-5 -3 -11 1 -9 7" transform="translate(-22 210) rotate(18) scale(0.95)" fill="none" stroke="#4B6630" stroke-opacity="0.23" stroke-width="2.3" stroke-linecap="round" stroke-linejoin="round" stroke-dasharray="3 7"/>
<path d="M-74 30C-50 8 -22 0 2 8c9 3 12 -4 6 -8c-5 -3 -11 1 -9 7" transform="translate(398 210) rotate(18) scale(0.95)" fill="none" stroke="#4B6630" stroke-opacity="0.23" stroke-width="2.3" stroke-linecap="round" stroke-linejoin="round" stroke-dasharray="3 7"/>
<path d="M-86 24C-58 -8 -14 -12 16 6" transform="translate(240 -76) rotate(-6) scale(0.9)" fill="none" stroke="#4B6630" stroke-opacity="0.23" stroke-width="2.3" stroke-linecap="round" stroke-linejoin="round" stroke-dasharray="3.5 8"/>
<path d="M-86 24C-58 -8 -14 -12 16 6" transform="translate(240 344) rotate(-6) scale(0.9)" fill="none" stroke="#4B6630" stroke-opacity="0.23" stroke-width="2.3" stroke-linecap="round" stroke-linejoin="round" stroke-dasharray="3.5 8"/>
<path d="M-52 22C-38 2 -18 -6 0 -2c8 2 10 8 4 11c-6 3 -11 -2 -7 -6" transform="translate(70 286) rotate(26) scale(0.9)" fill="none" stroke="#4B6630" stroke-opacity="0.23" stroke-width="2.3" stroke-linecap="round" stroke-linejoin="round" stroke-dasharray="2.5 6"/>
<path d="M-46 14C-30 -6 -6 -12 14 -6" transform="translate(-28 52) rotate(-22) scale(0.85)" fill="none" stroke="#4B6630" stroke-opacity="0.23" stroke-width="2.3" stroke-linecap="round" stroke-linejoin="round" stroke-dasharray="3 8"/>
<path d="M-46 14C-30 -6 -6 -12 14 -6" transform="translate(392 52) rotate(-22) scale(0.85)" fill="none" stroke="#4B6630" stroke-opacity="0.23" stroke-width="2.3" stroke-linecap="round" stroke-linejoin="round" stroke-dasharray="3 8"/>
<path d="M-52 22C-38 2 -18 -6 0 -2c8 2 10 8 4 11c-6 3 -11 -2 -7 -6" transform="translate(300 148) rotate(-20) scale(0.75)" fill="none" stroke="#4B6630" stroke-opacity="0.23" stroke-width="2.3" stroke-linecap="round" stroke-linejoin="round" stroke-dasharray="2.5 6"/>
<path d="M-46 14C-30 -6 -6 -12 14 -6" transform="translate(148 232) rotate(12) scale(0.8)" fill="none" stroke="#4B6630" stroke-opacity="0.23" stroke-width="2.3" stroke-linecap="round" stroke-linejoin="round" stroke-dasharray="3 8"/>
<path d="M-74 30C-50 8 -22 0 2 8c9 3 12 -4 6 -8c-5 -3 -11 1 -9 7" transform="translate(116 -10) rotate(24) scale(0.7)" fill="none" stroke="#4B6630" stroke-opacity="0.23" stroke-width="2.3" stroke-linecap="round" stroke-linejoin="round" stroke-dasharray="3 7"/>
<path d="M-74 30C-50 8 -22 0 2 8c9 3 12 -4 6 -8c-5 -3 -11 1 -9 7" transform="translate(116 410) rotate(24) scale(0.7)" fill="none" stroke="#4B6630" stroke-opacity="0.23" stroke-width="2.3" stroke-linecap="round" stroke-linejoin="round" stroke-dasharray="3 7"/>
<path d="M-46 14C-30 -6 -6 -12 14 -6" transform="translate(0 372) rotate(-10) scale(0.9)" fill="none" stroke="#4B6630" stroke-opacity="0.23" stroke-width="2.3" stroke-linecap="round" stroke-linejoin="round" stroke-dasharray="3 8"/>
<path d="M-46 14C-30 -6 -6 -12 14 -6" transform="translate(420 372) rotate(-10) scale(0.9)" fill="none" stroke="#4B6630" stroke-opacity="0.23" stroke-width="2.3" stroke-linecap="round" stroke-linejoin="round" stroke-dasharray="3 8"/>
</svg>
